<svg xmlns="http://www.w3.org/2000/svg" viewBox="0 0 24 24" fill="currentColor"><path d="M12 19q-3.35 0-6.1-1.87T1.66 12.2q-.1-.2-.14-.42T1.47 12t.05-.42.14-.43q.6-1.3 1.5-2.42T5.15 6.7L2.775 4.3q-.275-.275-.288-.687T2.775 2.9t.7-.288.7.288l16.95 16.95q.275.275.288.687t-.288.713-.712.287-.713-.287L16.2 18.1q-1 .45-2.037.675T12 19m0-2q.575 0 1.113-.075t1.062-.25L9.325 11.85q-.15.5-.238 1.038T9 14q0 1.25.875 2.125T12 17m6.9-.5-3.35-3.35q.2-.475.325-1.037T16 11q0-1.65-1.175-2.825T12 7q-.575 0-1.112.125T9.85 7.45L7.2 4.8Q8.35 4.4 9.55 4.2T12 4q3.35 0 6.1 1.87t4.24 4.93q.1.2.138.425t.037.475-.05.437-.135.413q-.5 1.075-1.213 2.037T18.9 16.5"/></svg>
