<svg width="24" height="24" viewBox="0 0 24 24" fill="none" xmlns="http://www.w3.org/2000/svg">
<path d="M17.3268 18.7422C17.7326 19.3349 18.2815 19.5505 19.0811 19.6118C19.6196 19.6531 20.5548 19.3773 20.8745 18.8281C21.1941 18.279 21.2237 17.9949 21.3213 17.0929C21.4074 16.2966 21.4386 14.1637 21.3213 12.8467C21.2543 12.0949 20.8745 11.0414 20.8745 11.0414C20.5225 10.2513 19.8186 9.77998 19.8186 9.77998C19.8186 9.77998 19.4008 9.53906 19.1116 9.43575C18.8224 9.33244 18.6567 9.22718 17.8695 9.22718C17.0822 9.22718 15.4452 9.84889 15.0852 10.5063C14.7318 11.1638 14.1852 11.4261 13.4452 11.2933C13.2371 11.256 12.8793 10.8332 12.4537 10.6797C12.1762 10.5796 11.7417 10.5063 11.7417 10.5063C10.7417 10.327 9.62391 11.2693 9.07514 11.9367C8.22848 12.5012 7.80514 12.2787 7.80514 11.2693L7.93168 9.22718C7.93168 8.16461 8.46501 7.63333 9.53168 7.63333H10.1417C11.2083 7.63333 11.7417 7.10205 11.7417 6.03948V5.31229C11.7417 4.24973 11.2083 3.71844 10.1417 3.71844H9.54168C8.47502 3.71844 7.56501 4.09366 6.81167 4.8441L5.97167 5.69083C5.21167 6.44127 4.83168 7.34777 4.83168 8.41033L4.53168 9.8946C4.14574 10.6465 3.94735 11.1638 3.55167 11.9367C3.41465 12.25 3.09893 13.2486 3.04746 13.9446C2.99598 14.6406 2.93592 14.8854 3.04746 15.471C3.15119 16.0156 3.55167 16.7979 3.55167 16.7979C4.10924 17.8489 4.86148 18.37 5.35454 18.7079C5.84759 19.0457 7.06714 19.6364 8.25591 19.8761C8.75726 19.9772 9.04491 20.0195 9.5562 20.0323C10.0527 20.0447 10.8252 19.9474 10.8252 19.9474C11.7587 19.8004 12.1882 19.6622 13.1828 18.8488L13.6417 18.3818C14.3894 17.919 14.5547 17.7207 15.3622 17.7207C16.3254 17.7207 16.9473 18.1879 17.3268 18.7422Z" fill="none" stroke="currentColor" stroke-width="1.5" stroke-linejoin="round" stroke-linecap="round"/>
</svg>
