<svg width="24" height="24" viewBox="0 0 24 24" fill="none" xmlns="http://www.w3.org/2000/svg">
<path d="M6 18.1C6 18.5971 6.40294 19 6.9 19H8.1C8.59706 19 9 18.5971 9 18.1V13.9C9 13.4029 9.40294 13 9.9 13H14.1C14.5971 13 15 13.4029 15 13.9V18.1C15 18.5971 15.4029 19 15.9 19H17.1C17.5971 19 18 18.5971 18 18.1V10.45C18 10.1667 17.8666 9.89997 17.64 9.73L12.54 5.905C12.22 5.665 11.78 5.665 11.46 5.905L6.36 9.73C6.13337 9.89997 6 10.1667 6 10.45V18.1ZM4.9 21C4.40294 21 4 20.5971 4 20.1V9.45C4 9.16672 4.13337 8.89997 4.36 8.73L11.46 3.405C11.78 3.165 12.22 3.165 12.54 3.405L19.64 8.73C19.8666 8.89997 20 9.16672 20 9.45V20.1C20 20.5971 19.5971 21 19.1 21H13.9C13.4029 21 13 20.5971 13 20.1V15.9C13 15.4029 12.5971 15 12.1 15H11.9C11.4029 15 11 15.4029 11 15.9V20.1C11 20.5971 10.5971 21 10.1 21H4.9Z" fill="currentColor"/>
</svg>
