<svg width="24" height="24" viewBox="0 0 24 24" fill="none" xmlns="http://www.w3.org/2000/svg">
<path d="M20.5 2.93848C21.0523 2.93848 21.5 3.38619 21.5 3.93848V4.13867C21.4998 4.69078 21.0522 5.13867 20.5 5.13867H19.5V18.8613H20.5C21.0523 18.8613 21.5 19.309 21.5 19.8613V20.0615C21.4999 20.6137 21.0522 21.0615 20.5 21.0615H16.5C15.9478 21.0615 15.5001 20.6137 15.5 20.0615V19.8613C15.5 19.309 15.9477 18.8613 16.5 18.8613H17.5V5.13867H6.5V18.8613H7.5C8.05228 18.8613 8.5 19.309 8.5 19.8613V20.0615C8.49989 20.6137 8.05222 21.0615 7.5 21.0615H3.5C2.94778 21.0615 2.50011 20.6137 2.5 20.0615V19.8613C2.5 19.309 2.94772 18.8613 3.5 18.8613H4.5V5.13867H3.5C2.94784 5.13867 2.5002 4.69078 2.5 4.13867V3.93848C2.5 3.38619 2.94772 2.93848 3.5 2.93848H20.5Z" fill="currentColor"/>
</svg>
