<svg width="22" height="22" viewBox="0 0 22 22" fill="none" xmlns="http://www.w3.org/2000/svg">
<path d="M6.06836 0.610352L6.66797 0.605469L6.6748 1.50586L7.28516 1.51172L7.29004 2.1123L6.67969 2.12695L6.68555 3.02734L6.08594 3.03125L6.08008 3.64258L5.47949 3.64648L5.46875 2.125L4.61914 2.13086C4.75955 3.17901 5.18821 4.09482 5.90527 4.87891C6.75461 5.80762 7.82665 6.29282 9.12207 6.33691C9.18531 6.33388 9.24913 6.33301 9.31348 6.33301H11.8135C13.1968 6.33301 14.3339 5.84512 15.2256 4.87012C15.9386 4.09044 16.3659 3.18044 16.5088 2.13965L15.7051 2.13379L15.6943 3.65527L15.0938 3.65137L15.0879 3.04004L14.4883 3.03613L14.4941 2.13574L13.8838 2.12109L13.8887 1.52051L14.499 1.51465L14.5059 0.614258L15.1055 0.619141L15.1211 0.00878906L15.7207 0.0126953L15.71 1.53418L16.5586 1.54004C16.5608 1.47153 16.5635 1.40255 16.5635 1.33301H18.5635C18.5635 1.40724 18.5616 1.48111 18.5596 1.55469L19.3525 1.56055L19.3633 0.0400391L19.9629 0.0439453L19.9697 0.654297L20.5693 0.65918L20.5625 1.55859L21.1738 1.57422L21.1689 2.17383L20.5586 2.18066L20.5518 3.08008L19.9521 3.07617L19.9365 3.68652L19.3369 3.68262L19.3477 2.16113L18.5195 2.1543C18.3868 3.39994 17.9481 4.54727 17.2012 5.5957C16.2936 6.86955 15.0821 7.70603 13.5674 8.10645V21.3418H11.5674V21.333H11.5635V15.3418H9.56738V21.3418H7.56738V21.333H7.56348V8.11523C6.04871 7.71482 4.83721 6.87834 3.92969 5.60449C3.17925 4.55113 2.73983 3.39795 2.60938 2.14551L1.82617 2.15234L1.83691 3.67383L1.2373 3.67773L1.22168 3.06738L0.62207 3.07129L0.615234 2.17188L0.00488281 2.16504L0 1.56543L0.611328 1.5498L0.604492 0.650391L1.2041 0.645508L1.21094 0.0351562L1.81055 0.03125L1.82129 1.55176L2.57031 1.5459C2.56859 1.47814 2.56738 1.41011 2.56738 1.3418H4.56738C4.56738 1.40538 4.56843 1.46853 4.57031 1.53125L5.46387 1.52539L5.45312 0.00390625L6.05273 0L6.06836 0.610352Z" fill="currentColor"/>
<path d="M10.5635 1.33301C11.1135 1.33301 11.5839 1.52923 11.9756 1.9209C12.1493 2.09464 12.2832 2.28437 12.3799 2.48926C12.5039 2.74861 12.5674 3.03231 12.5674 3.3418C12.5674 3.8918 12.3712 4.36224 11.9795 4.75391C11.5878 5.14557 11.1174 5.3418 10.5674 5.3418C10.0174 5.3418 9.54694 5.14557 9.15527 4.75391C8.95861 4.55725 8.81081 4.34107 8.71289 4.10449C8.61333 3.86744 8.56348 3.6103 8.56348 3.33301C8.56348 2.78301 8.7597 2.31257 9.15137 1.9209C9.54303 1.52923 10.0135 1.33301 10.5635 1.33301Z" fill="currentColor"/>
</svg>
