<svg viewBox="0 0 100 100" xmlns="http://www.w3.org/2000/svg" fill="none">
  <rect x="8" y="8" width="84" height="84" rx="22" fill="none" stroke="#6a6a6a" stroke-width="2.5"/>
  <rect x="11" y="11" width="78" height="78" rx="19" fill="none" stroke="#FF8C42" stroke-width="1.6"/>
  <g fill="#FF8C42">
    <g transform="translate(34,90) scale(0.6)">
      <path d="M-7 -6 H7 V-2 Q7 4 0 4 Q-7 4 -7 -2Z"/>
      <rect x="-2" y="4" width="4" height="3"/>
      <rect x="-6" y="7" width="12" height="3" rx="1.5"/>
    </g>
    <g transform="translate(50,92) scale(0.75)">
      <path d="M-7 -6 H7 V-2 Q7 4 0 4 Q-7 4 -7 -2Z"/>
      <rect x="-2" y="4" width="4" height="3"/>
      <rect x="-6" y="7" width="12" height="3" rx="1.5"/>
    </g>
    <g transform="translate(66,90) scale(0.6)">
      <path d="M-7 -6 H7 V-2 Q7 4 0 4 Q-7 4 -7 -2Z"/>
      <rect x="-2" y="4" width="4" height="3"/>
      <rect x="-6" y="7" width="12" height="3" rx="1.5"/>
    </g>
  </g>
</svg>